<svg width="153" height="50" viewBox="0 0 153 50" fill="none" xmlns="http://www.w3.org/2000/svg">
<path d="M65.5033 2.64111C68.3568 2.8127 71.6076 2.6944 74.4932 2.7173C80.6273 2.76602 86.8114 2.64222 92.9426 2.74446C92.9568 4.50114 93.0059 6.48379 92.945 8.22661C92.9568 8.63196 92.9703 8.92349 92.9228 9.33002C91.4246 9.346 89.9241 9.49058 88.437 9.50168C86.2213 9.51813 83.906 9.51333 81.6928 9.40881C79.0052 9.42518 75.2799 9.30672 72.7009 9.51341C72.7628 12.757 72.7561 16.0015 72.6808 19.2447L81.5907 19.2471C82.3295 19.2493 84.8307 19.2202 85.3655 19.3294L86.8423 19.3669C86.8621 21.5012 86.7909 23.9438 86.8905 26.0306C82.1919 26.1997 77.4852 26.0473 72.795 26.0221C72.6735 29.8095 72.8305 33.6167 72.7412 37.4066C72.737 37.5864 72.7346 37.7538 72.7188 37.9332L84.6385 37.9186C87.6744 37.9167 90.6858 37.8567 93.7146 38.0551C93.4117 39.6007 93.5904 42.6816 93.7558 44.2882C92.2829 44.4227 90.5466 44.4014 89.0516 44.3992L82.7567 44.3787C77.0102 44.3635 71.208 44.4272 65.4686 44.3503L65.4308 17.1479L65.4177 8.67305C65.4153 6.65301 65.3753 4.65777 65.5033 2.64111Z" fill="#1F2832"/>
<path d="M72.7193 37.9333C72.5621 37.9322 72.3371 37.9228 72.1902 37.8633C72.0735 37.8161 71.9965 37.7268 71.9474 37.6161C71.588 36.8078 71.4972 27.2058 71.8196 26.4442C71.9941 26.0318 72.4252 26.1899 72.7632 26.0379C72.7742 26.033 72.7848 26.0275 72.7955 26.0222C72.674 29.8096 72.831 33.6167 72.7416 37.4067C72.7375 37.5864 72.7351 37.7539 72.7193 37.9333Z" fill="#1F2832"/>
<path d="M71.6431 9.64707C71.9686 9.59394 72.368 9.55427 72.7011 9.51318C72.7631 12.7567 72.7563 16.0012 72.681 19.2445L81.591 19.2468C82.3298 19.2491 84.831 19.22 85.3657 19.3292C84.3935 19.4209 80.9415 19.3464 79.7764 19.3285C77.4939 19.2934 73.815 19.4859 71.6897 19.1892L71.6431 9.64707Z" fill="#1F2832"/>
<path d="M92.9453 8.22656C92.9572 8.63191 92.9706 8.92344 92.9232 9.32997C91.425 9.34595 89.9244 9.49053 88.4373 9.50163C86.2217 9.51808 83.9064 9.51328 81.6931 9.40875C82.3631 9.31375 83.1272 9.4082 83.8241 9.32406C84.5423 9.25795 85.2203 8.76374 85.9417 8.76256C87.3845 8.7602 88.8107 8.75367 90.248 8.89078C91.0295 8.96524 91.9637 9.08676 92.727 8.91274C92.8994 8.71801 92.8907 8.51023 92.9453 8.22656Z" fill="#1F2832"/>
<path fill-rule="evenodd" clip-rule="evenodd" d="M139.25 2.43652C139.397 3.21078 140.104 5.21773 140.377 6.10645L143.156 14.8848L147.027 26.9707C147.626 28.8945 148.176 30.8801 148.804 32.79L150.459 37.8877C151.207 40.1912 152.359 44.1459 152.365 44.167H144.855L141.169 32.0811H130.962C130.948 32.1282 128.901 38.7892 128.044 41.4521C127.757 42.343 127.377 44.0693 127.377 44.0693L119.579 44.167C119.584 44.1525 121.479 39.0876 121.789 38.0859L129.463 13.291L131.585 6.43457C131.884 5.47215 132.109 4.47101 132.444 3.52441C132.71 2.77146 132.949 2.47814 133.747 2.45605C135.038 2.41718 138.182 2.56498 139.25 2.43652ZM132.719 27.5098C134.323 27.5286 139.358 27.3697 139.376 27.3691L135.894 17.4033L132.719 27.5098Z" fill="#1F2832"/>
<path d="M94.6738 2.74426C95.5376 2.71538 97.3854 2.59676 98.1685 2.71742L116.415 2.73057C120.079 2.73033 123.685 2.6835 127.347 2.82573C127.213 5.0168 127.283 7.29295 127.333 9.48771C123.241 9.60885 119.11 9.45363 115.095 9.5776C115.009 17.3437 115.08 25.2059 115.079 32.9809L115.074 40.7553C115.073 41.5682 115.004 43.6247 115.068 44.3129C114.687 44.3148 114.072 44.3361 113.71 44.3106C111.805 44.2461 109.577 44.3244 107.635 44.31C107.551 42.3039 107.624 39.5421 107.629 37.5074L107.631 24.8459L107.579 14.8723C107.575 13.4471 107.506 10.9629 107.635 9.61664C106.723 9.57366 105.811 9.55595 104.899 9.56343C104.1 9.66197 103.939 9.58712 103.057 9.60263C100.095 9.65489 97.595 9.63073 94.6541 9.32983C94.7015 8.9233 94.6881 8.63177 94.6762 8.22642C94.7371 6.48359 94.6881 4.50094 94.6738 2.74426Z" fill="#1F2832"/>
<path d="M113.71 44.3109C114.124 43.9735 114.024 42.0328 114.032 41.4174C114.052 39.5021 114.051 37.5868 114.03 35.6715C113.998 28.7317 114.003 21.7918 114.045 14.8521C114.06 13.4385 113.958 12.0249 113.969 10.6108C113.977 9.68406 114.242 9.63793 115.094 9.57788C115.009 17.344 115.08 25.2062 115.078 32.9812L115.074 40.7556C115.073 41.5685 115.003 43.625 115.067 44.3132C114.687 44.3151 114.071 44.3364 113.71 44.3109Z" fill="#1F2832"/>
<path d="M54.9082 2.63916C56.6206 2.82365 59.2307 2.70173 61.0775 2.78367C61.4344 2.82995 61.6417 2.85576 61.9945 2.95486C62.2462 4.35318 62.2342 7.67072 62.2411 9.21292L62.2457 19.1821L62.2453 30.5457C62.2457 32.9589 62.3043 35.4387 62.112 37.8401C62.0467 38.6552 61.9268 39.2176 61.4519 39.8919L61.3971 39.9688C60.9604 40.8294 60.4723 41.6997 59.8215 42.4055C58.4899 43.85 56.4831 44.3786 54.5726 44.4026C52.0354 44.4345 49.5047 44.4104 46.9682 44.4171C46.5695 44.4182 46.134 44.4351 45.7398 44.417C42.5867 44.2721 38.774 45.0982 36.2656 42.6664C34.549 41.0022 34.0468 38.2978 33.9834 36.0301C36.2213 35.91 38.7969 35.873 41.0433 35.8863C41.0865 36.1064 41.1309 36.3393 41.2403 36.538C41.557 37.1137 42.184 37.5806 42.8151 37.7553C43.7755 38.0211 51.511 38.0395 52.5713 37.8126C53.349 37.6462 54.0861 37.1326 54.7669 36.7434C54.8611 35.6968 54.8301 34.2764 54.8319 33.1997L54.8348 27.3758L54.8365 12.5064C54.8334 9.26337 54.7675 5.86185 54.9082 2.63916Z" fill="#1F2832"/>
<path d="M31.9706 10.864L39.778 10.8635C39.5637 11.2733 39.2088 11.8302 38.9654 12.2375L37.5237 14.655L33.3274 21.6777L20.5859 42.8963C20.4365 43.1577 20.2677 43.433 20.1077 43.6882C19.2837 45.0023 18.5135 46.3838 17.6539 47.6725C17.6753 47.3634 17.6569 46.8744 17.6534 46.5539L17.6241 44.3739C17.587 42.1769 17.5821 39.9796 17.6095 37.7827C17.6247 36.9954 17.5861 35.7365 17.7614 34.9991C17.8766 34.5147 19.8458 31.4472 20.2317 30.817C23.073 26.21 25.8786 21.5809 28.6488 16.9306C29.3775 15.7028 30.092 14.4664 30.7922 13.2218C31.14 12.5987 31.756 11.5144 31.9706 10.864Z" fill="#1F2832"/>
<path d="M22.0795 10.8769C24.6655 10.847 27.3186 10.8765 29.9095 10.8767C29.663 11.5281 28.9675 12.6955 28.5995 13.3237L26.1796 17.4052L21.0001 26.3222C19.9107 28.1736 18.7594 30.147 17.5834 31.9426C17.1234 31.3969 16.2591 29.9255 15.8609 29.2622C14.8797 27.6217 13.911 25.9741 12.9548 24.3191L7.89271 15.694C7.10348 14.3313 5.85807 12.272 5.27417 10.8822C6.64934 11.7066 8.1431 12.7062 9.50715 13.58L17.5956 18.7547C19.0237 16.1444 20.6034 13.4757 22.0795 10.8769Z" fill="#1F2832"/>
<path d="M27.3125 2.64331C27.9486 2.66759 28.7114 2.64796 29.3546 2.64796L33.1713 2.64774L44.7685 2.64848C43.4935 4.90424 42.1262 7.17536 40.8251 9.42518L40.7737 9.48197C40.5675 9.51347 39.5421 9.49275 39.2562 9.49275L35.822 9.49291L23.49 9.4938C23.886 8.7362 24.3676 7.91389 24.7863 7.16369L27.3125 2.64331Z" fill="#1F2832"/>
</svg>
