<svg width="1440" height="84" viewBox="0 0 1440 84" fill="none" xmlns="http://www.w3.org/2000/svg" xmlns:xlink="http://www.w3.org/1999/xlink">
<g id="Repeat group 1_inner" data-figma-trr="l15u1-0f">
<path d="M-150.32 68L-149.104 59.04H-146.224C-144.304 59.04 -142.683 58.5067 -141.36 57.44C-140.037 56.3307 -139.248 54.88 -138.992 53.088L-134.384 20.32H-124.464L-129.264 54.56C-129.605 56.992 -130.48 59.232 -131.888 61.28C-133.296 63.2853 -135.195 64.9067 -137.584 66.144C-139.973 67.3813 -142.832 68 -146.16 68H-150.32ZM-125.393 68L-118.737 20.32H-86.673L-87.889 28.96H-110.033L-111.505 39.776H-90.641L-91.857 48.416H-112.721L-114.257 59.36H-92.113L-93.329 68H-125.393ZM-81.6895 68L-76.2495 28.96H-88.3455L-87.1295 20.32H-53.2095L-54.4255 28.96H-66.3295L-71.7695 68H-81.6895ZM-64.2205 68L-41.4365 20.32H-28.2525L-18.7805 68H-29.2125L-31.0045 58.272H-48.4125L-52.9565 68H-64.2205ZM-44.4445 49.632H-32.6045L-36.7005 27.232L-34.0765 27.552L-44.4445 49.632ZM-7.4455 68L-0.789503 20.32H9.1305L5.8025 44.192L3.1785 43.232L25.4505 20.32H37.8665L15.7865 43.104L17.3865 36.064L31.5945 68H20.6505L11.6265 47.392L4.2665 54.944L2.4745 68H-7.4455ZM57.3535 68.768C53.8975 68.768 50.6975 68.192 47.7535 67.04C44.8522 65.888 42.3135 64.2667 40.1375 62.176C38.0042 60.0853 36.3402 57.6533 35.1455 54.88C33.9508 52.064 33.3535 48.992 33.3535 45.664C33.3535 41.952 34.0362 38.5173 35.4015 35.36C36.7668 32.2027 38.6655 29.4507 41.0975 27.104C43.5295 24.7147 46.3455 22.8587 49.5455 21.536C52.7882 20.2133 56.2868 19.552 60.0415 19.552C63.5402 19.552 66.7402 20.128 69.6415 21.28C72.5855 22.432 75.1242 24.0533 77.2575 26.144C79.4335 28.192 81.0975 30.624 82.2495 33.44C83.4442 36.2133 84.0415 39.2427 84.0415 42.528C84.0415 46.24 83.3588 49.696 81.9935 52.896C80.6282 56.0533 78.7082 58.8267 76.2335 61.216C73.8015 63.6053 70.9642 65.4613 67.7215 66.784C64.5215 68.1067 61.0655 68.768 57.3535 68.768ZM57.3535 59.808C59.6575 59.808 61.8122 59.3813 63.8175 58.528C65.8655 57.6747 67.6575 56.48 69.1935 54.944C70.7295 53.408 71.9242 51.5947 72.7775 49.504C73.6735 47.3707 74.1215 45.0667 74.1215 42.592C74.1215 39.776 73.5028 37.3227 72.2655 35.232C71.0708 33.0987 69.4068 31.456 67.2735 30.304C65.1828 29.1093 62.7722 28.512 60.0415 28.512C57.7375 28.512 55.5615 28.9387 53.5135 29.792C51.5082 30.6453 49.7375 31.84 48.2015 33.376C46.6655 34.8693 45.4495 36.6613 44.5535 38.752C43.7002 40.8427 43.2735 43.1467 43.2735 45.664C43.2735 48.4373 43.8708 50.8907 45.0655 53.024C46.3028 55.1573 47.9668 56.8213 50.0575 58.016C52.1908 59.2107 54.6228 59.808 57.3535 59.808ZM85.247 68L91.903 20.32H99.519L119.807 54.048L116.159 55.008L121.023 20.32H130.943L124.287 68H116.607L96.767 34.016L100.031 33.056L95.167 68H85.247ZM142.987 68L133.323 20.32H143.819L150.731 58.592H148.427L166.091 20.32H177.483L154.507 68H142.987ZM173.189 68L179.845 20.32H211.909L210.693 28.96H188.549L187.077 39.776H207.941L206.725 48.416H185.861L184.325 59.36H206.469L205.253 68H173.189ZM208.317 68L214.973 20.32H224.893L221.565 44.192L218.941 43.232L241.213 20.32H253.629L231.549 43.104L233.149 36.064L247.357 68H236.413L227.389 47.392L220.029 54.944L218.237 68H208.317ZM268.397 68.768C265.069 68.768 262.04 68.2133 259.309 67.104C256.621 65.9947 254.36 64.416 252.525 62.368C250.691 60.32 249.432 57.9307 248.749 55.2L257.133 51.936C257.987 54.4533 259.416 56.4587 261.421 57.952C263.427 59.4027 265.688 60.128 268.205 60.128C269.656 60.128 270.915 59.8933 271.981 59.424C273.091 58.912 273.944 58.2293 274.541 57.376C275.181 56.5227 275.501 55.5627 275.501 54.496C275.501 53.472 275.181 52.5973 274.541 51.872C273.901 51.1467 272.856 50.5493 271.405 50.08L262.957 47.2C259.459 46.0053 256.856 44.3627 255.149 42.272C253.485 40.1387 252.653 37.536 252.653 34.464C252.653 31.648 253.4 29.1307 254.893 26.912C256.429 24.6507 258.477 22.8587 261.037 21.536C263.64 20.2133 266.563 19.552 269.805 19.552C272.835 19.552 275.565 20.064 277.997 21.088C280.472 22.0693 282.541 23.4773 284.205 25.312C285.869 27.1467 287.021 29.3227 287.661 31.84L279.341 35.104C278.659 32.928 277.443 31.2427 275.693 30.048C273.987 28.8107 271.939 28.192 269.549 28.192C268.141 28.192 266.904 28.4267 265.837 28.896C264.813 29.3227 264.003 29.9413 263.405 30.752C262.851 31.5627 262.573 32.5227 262.573 33.632C262.573 34.784 262.915 35.744 263.597 36.512C264.28 37.28 265.347 37.92 266.797 38.432L275.053 41.312C278.552 42.5067 281.155 44.128 282.861 46.176C284.611 48.224 285.485 50.7627 285.485 53.792C285.485 56.608 284.696 59.1467 283.117 61.408C281.581 63.6693 279.512 65.4613 276.909 66.784C274.349 68.1067 271.512 68.768 268.397 68.768ZM288.134 68L294.79 20.32H304.71L298.054 68H288.134Z" fill="white"/>
<g clip-path="url(#clip0_84_679)">
<path d="M339.67 27.5618L347.51 27.5613C347.295 27.9762 346.938 28.5401 346.694 28.9526L345.246 31.4004L341.033 38.5114L328.238 59.9969C328.088 60.2615 327.919 60.5403 327.758 60.7987C326.931 62.1293 326.157 63.5282 325.294 64.8331C325.316 64.5201 325.297 64.0249 325.294 63.7004L325.264 61.493C325.227 59.2684 325.222 57.0435 325.25 54.8189C325.265 54.0217 325.226 52.747 325.402 52.0003C325.518 51.5099 327.495 48.4038 327.883 47.7656C330.736 43.1007 333.553 38.4135 336.335 33.7047C337.066 32.4614 337.784 31.2095 338.487 29.9492C338.836 29.3183 339.455 28.2203 339.67 27.5618Z" fill="white"/>
<path d="M329.976 27.5618C332.573 27.5315 335.237 27.5613 337.839 27.5615C337.591 28.2212 336.893 29.4032 336.523 30.0393L334.093 34.1722L328.893 43.2013C327.799 45.0759 326.643 47.0741 325.462 48.8923C325 48.3398 324.132 46.8499 323.732 46.1782C322.747 44.5171 321.774 42.8488 320.814 41.173L315.731 32.4395C314.938 31.0596 313.688 28.9744 313.102 27.5671C314.482 28.4019 315.982 29.4141 317.352 30.2988L325.474 35.5386C326.908 32.8955 328.494 30.1932 329.976 27.5618Z" fill="white"/>
<path d="M334.993 19.2375C335.632 19.2621 336.398 19.2422 337.043 19.2422L340.876 19.242L352.521 19.2427C351.241 21.5268 349.868 23.8265 348.561 26.1046L348.51 26.1621C348.303 26.194 347.273 26.1731 346.986 26.1731L343.538 26.1732L331.155 26.1741C331.552 25.407 332.036 24.5743 332.456 23.8147L334.993 19.2375Z" fill="white"/>
</g>
</g>
<use xlink:href="#Repeat%20group%201_inner" transform="translate(502.604)"/>
<use xlink:href="#Repeat%20group%201_inner" transform="translate(1005.21)"/>
<use xlink:href="#Repeat%20group%201_inner" transform="translate(1507.81)"/>
<use xlink:href="#Repeat%20group%201_inner" transform="translate(2010.42)"/>
<use xlink:href="#Repeat%20group%201_inner" transform="translate(2513.02)"/>
<use xlink:href="#Repeat%20group%201_inner" transform="translate(3015.63)"/>
<use xlink:href="#Repeat%20group%201_inner" transform="translate(3518.23)"/>
<use xlink:href="#Repeat%20group%201_inner" transform="translate(4020.83)"/>
<use xlink:href="#Repeat%20group%201_inner" transform="translate(4523.44)"/>
<use xlink:href="#Repeat%20group%201_inner" transform="translate(5026.04)"/>
<use xlink:href="#Repeat%20group%201_inner" transform="translate(5528.65)"/>
<use xlink:href="#Repeat%20group%201_inner" transform="translate(6031.25)"/>
<use xlink:href="#Repeat%20group%201_inner" transform="translate(6533.86)"/>
<use xlink:href="#Repeat%20group%201_inner" transform="translate(7036.46)"/>
<defs>
<clipPath id="clip0_84_679">
<rect width="39.6043" height="46.5618" fill="white" transform="translate(313 18.7191)"/>
</clipPath>
</defs>
</svg>
