<svg width="209" height="210" viewBox="0 0 209 210" fill="none" xmlns="http://www.w3.org/2000/svg">
<g clip-path="url(#clip0_4_19)">
<path d="M136.849 39.883L172.785 39.8809C171.799 41.7761 170.165 44.3518 169.045 46.2354L162.409 57.416L143.094 89.8949L84.4467 188.029C83.759 189.238 82.9818 190.511 82.2454 191.691C78.4528 197.768 74.9078 204.158 70.9511 210.118C71.0496 208.688 70.9646 206.427 70.9488 204.944L70.8138 194.862C70.6429 184.701 70.6205 174.539 70.7465 164.379C70.8165 160.738 70.6387 154.915 71.4458 151.505C71.976 149.265 81.0399 135.078 82.8161 132.163C95.8942 110.856 108.808 89.4476 121.559 67.9405C124.913 62.2617 128.202 56.5438 131.425 50.7877C133.025 47.9059 135.861 42.8908 136.849 39.883Z" fill="white"/>
<path d="M92.4136 39.8833C104.316 39.745 116.528 39.8812 128.454 39.882C127.319 42.895 124.118 48.2938 122.424 51.1992L111.286 70.0758L87.4454 111.316C82.4308 119.878 77.1316 129.005 71.7187 137.309C69.6013 134.786 65.6229 127.981 63.7902 124.913C59.2738 117.326 54.8149 109.706 50.414 102.052L27.1138 62.1618C23.4811 55.8592 17.7486 46.3354 15.061 39.9075C21.3907 43.7203 28.2663 48.3436 34.5448 52.3846L71.7747 76.317C78.3483 64.2448 85.6194 51.9021 92.4136 39.8833Z" fill="white"/>
<path d="M115.408 1.86279C118.336 1.97509 121.847 1.88428 124.808 1.88428L142.375 1.88328L195.755 1.88671C189.887 12.3193 183.593 22.823 177.605 33.2281L177.368 33.4908C176.419 33.6364 171.699 33.5406 170.383 33.5406L154.576 33.5413L97.8136 33.5455C99.6364 30.0416 101.853 26.2386 103.78 22.769L115.408 1.86279Z" fill="white"/>
</g>
<defs>
<clipPath id="clip0_4_19">
<rect width="209" height="210" fill="white"/>
</clipPath>
</defs>
</svg>
